<?xml version="1.0" encoding="UTF-8" standalone="no"?>
<svg
   width="200"
   height="50"
   viewBox="0 0 52.916665 13.229167"
   version="1.1"
   id="svg47"
   inkscape:version="1.2.2 (b0a8486, 2022-12-01)"
   sodipodi:docname="title.svg"
   xmlns:inkscape="http://www.inkscape.org/namespaces/inkscape"
   xmlns:sodipodi="http://sodipodi.sourceforge.net/DTD/sodipodi-0.dtd"
   xmlns="http://www.w3.org/2000/svg"
   xmlns:svg="http://www.w3.org/2000/svg"
   xmlns:rdf="http://www.w3.org/1999/02/22-rdf-syntax-ns#"
   xmlns:cc="http://creativecommons.org/ns#"
   xmlns:dc="http://purl.org/dc/elements/1.1/">
  <defs
     id="defs41">
    <rect
       x="110.32901"
       y="110.24051"
       width="569.29419"
       height="209.59334"
       id="rect721" />
    <rect
       x="110.32901"
       y="110.24051"
       width="569.29419"
       height="209.59334"
       id="rect29" />
  </defs>
  <sodipodi:namedview
     id="base"
     pagecolor="#ffffff"
     bordercolor="#666666"
     borderopacity="1.0"
     inkscape:pageopacity="0"
     inkscape:pageshadow="2"
     inkscape:zoom="5.3022435"
     inkscape:cx="110.80215"
     inkscape:cy="56.485524"
     inkscape:document-units="mm"
     inkscape:current-layer="layer1"
     inkscape:document-rotation="0"
     showgrid="false"
     units="px"
     inkscape:window-width="1920"
     inkscape:window-height="1016"
     inkscape:window-x="1920"
     inkscape:window-y="27"
     inkscape:window-maximized="1"
     inkscape:showpageshadow="0"
     inkscape:pagecheckerboard="1"
     inkscape:deskcolor="#d1d1d1" />
  <metadata
     id="metadata44">
    <rdf:RDF>
      <cc:Work
         rdf:about="">
        <dc:format>image/svg+xml</dc:format>
        <dc:type
           rdf:resource="http://purl.org/dc/dcmitype/StillImage" />
      </cc:Work>
    </rdf:RDF>
  </metadata>
  <g
     inkscape:label="Calque 1"
     inkscape:groupmode="layer"
     id="layer1">
    <g
       id="g924"
       transform="matrix(0.3797897,0,0,0.3797897,-8.6323961,-8.8150981)">
      <path
         id="rect882"
         style="fill:#000000;stroke-width:4.99999;stroke-linecap:square;stroke-linejoin:bevel;paint-order:markers fill stroke"
         d="M 29.462765,25.059896 H 118.705 c 2.34297,0 4.22919,1.88622 4.22919,4.229193 v 22.70682 c 0,2.342973 -1.88622,4.229192 -4.22919,4.229192 H 29.462765 c -2.342973,0 -4.229193,-1.886219 -4.229193,-4.229192 v -22.70682 c 0,-2.342973 1.88622,-4.229193 4.229193,-4.229193 z" />
      <path
         id="rect882-7"
         style="fill:#000000;stroke-width:4.99999;stroke-linecap:square;stroke-linejoin:bevel;paint-order:markers fill stroke"
         d="M 53.638105,37.753197 H 143.6879 c 1.91008,0 3.4478,1.487062 3.4478,3.33422 v 11.799586 c 0,1.847159 -1.53772,3.334221 -3.4478,3.334221 H 53.638105 c -1.910082,0 -3.447801,-1.487062 -3.447801,-3.334221 V 41.087417 c 0,-1.847158 1.537719,-3.33422 3.447801,-3.33422 z" />
      <g
         aria-label="New Pedagogical  online offline Realities"
         transform="matrix(0.26458333,0,0,0.26458333,0,0.52916663)"
         id="text719"
         style="font-size:40px;line-height:41.6px;font-family:'Ready Clouded';-inkscape-font-specification:'Ready Clouded';white-space:pre;shape-inside:url(#rect721)">
        <path
           d="m 113.76812,143.52023 h 5.12001 v -23 h 0.08 c 0,0 0.59999,1.6 2.08,4.04 l 11.35999,18.96 h 6.16 v -30.6 h -5.12 v 22.76 h -0.12 c 0,0 -0.6,-1.72 -1.96,-4 l -11.19999,-18.76 h -6.40001 z"
           style="font-weight:500;font-family:'Atlas Grotesk';-inkscape-font-specification:'Atlas Grotesk Medium';fill:#ffffff"
           id="path23" />
        <path
           d="m 157.92802,130.80023 h -9.04 c 0.36,-3.48 1.88,-5.6 4.64,-5.6 2.96,0 4.2,2.16 4.4,5.36 z m 5.24,6.72 h -5.28 c -0.36,1.28 -1.2,2.8 -4.08,2.8 -3.16,0 -4.72,-2.12 -4.96,-6.16 h 14.56 v -1.72 c 0,-5.96 -2.84,-10.76 -9.84,-10.76 -6.44,0 -10.16,4.72 -10.16,11.2 0,6.68 3.48,11.16 10.2,11.16 5.48,0 8.88,-2.44 9.56,-6.52 z"
           style="font-weight:500;font-family:'Atlas Grotesk';-inkscape-font-specification:'Atlas Grotesk Medium';fill:#ffffff"
           id="path25" />
        <path
           d="m 172.08791,143.52023 h 5.2 l 3.08,-9.88 c 0.72,-2.36 1.52,-5.8 1.52,-5.8 h 0.08 c 0,0 0.68,3.4 1.4,5.8 l 3.04,9.88 h 5.32 l 6.32,-21.32 h -4.84 l -3.28,12.04 c -0.44,1.84 -0.84,3.84 -0.84,3.84 h -0.12 c 0,0 -0.4,-2 -0.96,-3.84 l -3.64,-12.04 h -4.64 l -3.64,12.04 c -0.56,1.84 -0.96,3.84 -0.96,3.84 h -0.12 c 0,0 -0.28,-2 -0.76,-3.84 l -3.28,-12.04 h -5.24 z"
           style="font-weight:500;font-family:'Atlas Grotesk';-inkscape-font-specification:'Atlas Grotesk Medium';fill:#ffffff"
           id="path27" />
        <path
           d="m 221.72785,132.60023 c 6.64,0 11.76,-2.88 11.76,-9.96 0,-6.92 -4.92,-9.72 -11.28,-9.72 h -10.16 v 30.6 h 5.6 v -10.92 z m -4.08,-4.16 v -11.4 h 4.44 c 3.68,0 5.84,1.6 5.84,5.64 0,3.84 -2.16,5.76 -5.92,5.76 z"
           style="font-weight:500;font-family:'Atlas Grotesk';-inkscape-font-specification:'Atlas Grotesk Medium';fill:#ffffff"
           id="path29" />
        <path
           d="m 250.64782,130.80023 h -9.04 c 0.36,-3.48 1.88,-5.6 4.64,-5.6 2.96,0 4.2,2.16 4.4,5.36 z m 5.24,6.72 h -5.28 c -0.36,1.28 -1.2,2.8 -4.08,2.8 -3.16,0 -4.72,-2.12 -4.96,-6.16 h 14.56 v -1.72 c 0,-5.96 -2.84,-10.76 -9.84,-10.76 -6.44,0 -10.16,4.72 -10.16,11.2 0,6.68 3.48,11.16 10.2,11.16 5.48,0 8.88,-2.44 9.56,-6.52 z"
           style="font-weight:500;font-family:'Atlas Grotesk';-inkscape-font-specification:'Atlas Grotesk Medium';fill:#ffffff"
           id="path31" />
        <path
           d="m 275.04772,134.40023 c 0,3.36 -1.84,5.88 -5.04,5.88 -3.48,0 -4.84,-2.88 -4.84,-7.36 0,-4.8 1.8,-7.36 5.04,-7.36 2.92,0 4.84,2.4 4.84,6.4 z m 5.32,-22.4 h -5.4 v 13.16 h -0.08 c -0.96,-1.96 -3.04,-3.44 -5.92,-3.44 -5.36,0 -9.28,3.92 -9.28,11.36 0,7.68 3.68,10.96 8.92,10.96 3.32,0 5.4,-1.84 6.48,-3.8 h 0.12 v 3.28 h 5.16 z"
           style="font-weight:500;font-family:'Atlas Grotesk';-inkscape-font-specification:'Atlas Grotesk Medium';fill:#ffffff"
           id="path33" />
        <path
           d="m 293.32771,140.20023 c -1.96,0 -3.12,-1.12 -3.12,-2.88 0,-1 0.32,-1.8 1.08,-2.32 1.12,-0.8 3.12,-1.12 6.88,-1.32 v 0.6 c 0,4.16 -2.48,5.92 -4.84,5.92 z m -2.36,-11.84 c 0.08,-1.68 1.12,-3.08 3.6,-3.08 2.44,0 3.56,1.32 3.56,4.2 v 1.08 c -4.6,0.2 -7.84,0.48 -10.08,1.64 -2.16,1.12 -3.2,2.92 -3.2,5.36 0,3.92 2.68,6.24 7.04,6.24 3.08,0 5.32,-1.24 6.56,-3.44 h 0.12 c 0.56,2.44 1.92,3.24 5.08,3.24 h 1.52 v -3.88 c -1.4,0 -1.8,-0.52 -1.8,-1.88 v -7.84 c 0,-5.68 -2.44,-8.28 -8.76,-8.28 -5.4,0 -8.64,2.56 -8.8,6.64 z"
           style="font-weight:500;font-family:'Atlas Grotesk';-inkscape-font-specification:'Atlas Grotesk Medium';fill:#ffffff"
           id="path35" />
        <path
           d="m 323.44771,133.84023 c 0,3.12 -2.04,5.56 -4.96,5.56 -3.56,0 -4.96,-2.64 -4.96,-6.92 0,-4.44 1.84,-6.96 4.92,-6.96 3,0 5,2.32 5,6.04 z m -5.2,17.64 c 6.72,0 10.36,-2.96 10.36,-9.24 v -20.04 h -5.16 v 3.08 h -0.08 c -0.88,-1.8 -2.84,-3.56 -6.2,-3.56 -5.2,0 -9.12,3.8 -9.12,10.76 0,7.44 3.68,10.52 8.88,10.52 3.44,0 5.52,-2 6.4,-3.8 h 0.08 v 3.04 c 0,4.12 -1.64,5.52 -5.08,5.52 -3,0 -4.08,-1 -4.48,-2.68 h -5.2 c 0.4,4.16 3.88,6.4 9.6,6.4 z"
           style="font-weight:500;font-family:'Atlas Grotesk';-inkscape-font-specification:'Atlas Grotesk Medium';fill:#ffffff"
           id="path37" />
        <path
           d="m 343.68768,144.04023 c 6.24,0 10.36,-4.32 10.36,-11.2 0,-6.88 -3.88,-11.16 -10.32,-11.16 -6.44,0 -10.4,4.32 -10.4,11.16 0,6.88 3.76,11.2 10.36,11.2 z m 0,-18.64 c 3.48,0 4.8,3 4.8,7.44 0,4.4 -1.28,7.44 -4.76,7.44 -3.44,0 -4.84,-2.92 -4.84,-7.44 0,-4.36 1.4,-7.44 4.8,-7.44 z"
           style="font-weight:500;font-family:'Atlas Grotesk';-inkscape-font-specification:'Atlas Grotesk Medium';fill:#ffffff"
           id="path39" />
        <path
           d="m 373.00764,133.84023 c 0,3.12 -2.04,5.56 -4.96,5.56 -3.56,0 -4.96,-2.64 -4.96,-6.92 0,-4.44 1.84,-6.96 4.92,-6.96 3,0 5,2.32 5,6.04 z m -5.2,17.64 c 6.72,0 10.36,-2.96 10.36,-9.24 v -20.04 h -5.16 v 3.08 h -0.08 c -0.88,-1.8 -2.84,-3.56 -6.2,-3.56 -5.2,0 -9.12,3.8 -9.12,10.76 0,7.44 3.68,10.52 8.88,10.52 3.44,0 5.52,-2 6.4,-3.8 h 0.08 v 3.04 c 0,4.12 -1.64,5.52 -5.08,5.52 -3,0 -4.08,-1 -4.48,-2.68 h -5.2 c 0.4,4.16 3.88,6.4 9.6,6.4 z"
           style="font-weight:500;font-family:'Atlas Grotesk';-inkscape-font-specification:'Atlas Grotesk Medium';fill:#ffffff"
           id="path41" />
        <path
           d="m 384.28762,118.12023 h 5.48 v -5.08 h -5.48 z m 0.04,25.4 h 5.4 v -21.32 h -5.4 z"
           style="font-weight:500;font-family:'Atlas Grotesk';-inkscape-font-specification:'Atlas Grotesk Medium';fill:#ffffff"
           id="path43" />
        <path
           d="m 414.2076,129.44023 c -0.24,-5.28 -4.16,-7.76 -9.36,-7.76 -6.44,0 -10.36,4.44 -10.36,11.2 0,6.92 3.68,11.16 10.28,11.16 5.28,0 9.24,-2.72 9.56,-8.08 h -5.2 c -0.08,1.88 -1.12,4.28 -4.32,4.28 -3.84,0 -4.8,-3.6 -4.8,-7.44 0,-4.08 1.36,-7.4 4.84,-7.4 2.64,0 3.88,1.8 4.08,4.04 z"
           style="font-weight:500;font-family:'Atlas Grotesk';-inkscape-font-specification:'Atlas Grotesk Medium';fill:#ffffff"
           id="path45" />
        <path
           d="m 425.88751,140.20023 c -1.96,0 -3.12,-1.12 -3.12,-2.88 0,-1 0.32,-1.8 1.08,-2.32 1.12,-0.8 3.12,-1.12 6.88,-1.32 v 0.6 c 0,4.16 -2.48,5.92 -4.84,5.92 z m -2.36,-11.84 c 0.08,-1.68 1.12,-3.08 3.6,-3.08 2.44,0 3.56,1.32 3.56,4.2 v 1.08 c -4.6,0.2 -7.84,0.48 -10.08,1.64 -2.16,1.12 -3.2,2.92 -3.2,5.36 0,3.92 2.68,6.24 7.04,6.24 3.08,0 5.32,-1.24 6.56,-3.44 h 0.12 c 0.56,2.44 1.92,3.24 5.08,3.24 h 1.52 v -3.88 c -1.4,0 -1.8,-0.52 -1.8,-1.88 v -7.84 c 0,-5.68 -2.44,-8.28 -8.76,-8.28 -5.4,0 -8.64,2.56 -8.8,6.64 z"
           style="font-weight:500;font-family:'Atlas Grotesk';-inkscape-font-specification:'Atlas Grotesk Medium';fill:#ffffff"
           id="path47" />
        <path
           d="m 442.00752,143.52023 h 5.4 v -31.52 h -5.4 z"
           style="font-weight:500;font-family:'Atlas Grotesk';-inkscape-font-specification:'Atlas Grotesk Medium';fill:#ffffff"
           id="path49" />
        <path
           d="m 122.32813,188.78691 c 6.23999,0 10.36,-4.32 10.36,-11.2 0,-6.88 -3.88001,-11.16 -10.32001,-11.16 -6.44,0 -10.39999,4.32 -10.39999,11.16 0,6.88 3.76,11.2 10.36,11.2 z m 0,-18.64 c 3.48,0 4.79999,3 4.79999,7.44 0,4.4 -1.28,7.44 -4.76,7.44 -3.44,0 -4.83999,-2.92 -4.83999,-7.44 0,-4.36 1.39999,-7.44 4.8,-7.44 z"
           style="font-weight:500;font-family:'Atlas Grotesk';-inkscape-font-specification:'Atlas Grotesk Medium';fill:#ffffff"
           id="path51" />
        <path
           d="m 151.28812,188.26691 h 5.4 v -14.2 c 0,-5.16 -2.32,-7.6 -7.08,-7.6 -3.56,0 -5.8,1.88 -6.92,4.04 h -0.08 v -3.56 h -5.16 v 21.32 h 5.4 v -12.48 c 0,-3.24 1.6,-5.28 4.8,-5.28 1.28,0 2.32,0.4 2.96,1.28 0.64,0.88 0.68,2.28 0.68,3.8 z"
           style="font-weight:500;font-family:'Atlas Grotesk';-inkscape-font-specification:'Atlas Grotesk Medium';fill:#ffffff"
           id="path53" />
        <path
           d="m 162.60811,188.26691 h 5.4 v -31.52 h -5.4 z"
           style="font-weight:500;font-family:'Atlas Grotesk';-inkscape-font-specification:'Atlas Grotesk Medium';fill:#ffffff"
           id="path55" />
        <path
           d="m 174.08803,162.86691 h 5.48 v -5.08 h -5.48 z m 0.04,25.4 h 5.4 v -21.32 h -5.4 z"
           style="font-weight:500;font-family:'Atlas Grotesk';-inkscape-font-specification:'Atlas Grotesk Medium';fill:#ffffff"
           id="path57" />
        <path
           d="m 199.56799,188.26691 h 5.4 v -14.2 c 0,-5.16 -2.32,-7.6 -7.08,-7.6 -3.56,0 -5.8,1.88 -6.92,4.04 h -0.08 v -3.56 h -5.16 v 21.32 h 5.4 v -12.48 c 0,-3.24 1.6,-5.28 4.8,-5.28 1.28,0 2.32,0.4 2.96,1.28 0.64,0.88 0.68,2.28 0.68,3.8 z"
           style="font-weight:500;font-family:'Atlas Grotesk';-inkscape-font-specification:'Atlas Grotesk Medium';fill:#ffffff"
           id="path59" />
        <path
           d="m 223.96798,175.54691 h -9.04 c 0.36,-3.48 1.88,-5.6 4.64,-5.6 2.96,0 4.2,2.16 4.4,5.36 z m 5.24,6.72 h -5.28 c -0.36,1.28 -1.2,2.8 -4.08,2.8 -3.16,0 -4.72,-2.12 -4.96,-6.16 h 14.56 v -1.72 c 0,-5.96 -2.84,-10.76 -9.84,-10.76 -6.44,0 -10.16,4.72 -10.16,11.2 0,6.68 3.48,11.16 10.2,11.16 5.48,0 8.88,-2.44 9.56,-6.52 z"
           style="font-weight:500;font-family:'Atlas Grotesk';-inkscape-font-specification:'Atlas Grotesk Medium';fill:#ffffff"
           id="path61" />
        <path
           d="m 252.88789,188.78691 c 6.24,0 10.36,-4.32 10.36,-11.2 0,-6.88 -3.88,-11.16 -10.32,-11.16 -6.44,0 -10.4,4.32 -10.4,11.16 0,6.88 3.76,11.2 10.36,11.2 z m 0,-18.64 c 3.48,0 4.8,3 4.8,7.44 0,4.4 -1.28,7.44 -4.76,7.44 -3.44,0 -4.84,-2.92 -4.84,-7.44 0,-4.36 1.4,-7.44 4.8,-7.44 z"
           style="font-weight:500;font-family:'Atlas Grotesk';-inkscape-font-specification:'Atlas Grotesk Medium';fill:#ffffff"
           id="path63" />
        <path
           d="m 274.12784,170.78691 h 8.88 v 17.48 h 5.32 v -17.48 h 4.48 v -3.84 h -4.48 v -3.16 c 0,-2.44 1,-3.24 2.92,-3.24 0.96,0 1.64,0.12 1.84,0.16 v -3.92 c -0.36,-0.08 -1.48,-0.24 -2.8,-0.24 -4.4,0 -7.28,1.68 -7.28,6.88 v 3.52 h -8.88 v -2.88 c 0,-2.44 1,-3.2 2.92,-3.2 0.96,0 1.64,0.08 1.88,0.12 v -3.92 c -0.4,-0.08 -1.48,-0.2 -2.84,-0.2 -4.4,0 -7.28,1.64 -7.28,6.84 v 3.24 h -3.32 v 3.84 h 3.32 v 17.48 h 5.32 z"
           style="font-weight:500;font-family:'Atlas Grotesk';-inkscape-font-specification:'Atlas Grotesk Medium';fill:#ffffff"
           id="path65" />
        <path
           d="m 296.80778,188.26691 h 5.4 v -31.52 h -5.4 z"
           style="font-weight:500;font-family:'Atlas Grotesk';-inkscape-font-specification:'Atlas Grotesk Medium';fill:#ffffff"
           id="path67" />
        <path
           d="m 308.28771,162.86691 h 5.48 v -5.08 h -5.48 z m 0.04,25.4 h 5.4 v -21.32 h -5.4 z"
           style="font-weight:500;font-family:'Atlas Grotesk';-inkscape-font-specification:'Atlas Grotesk Medium';fill:#ffffff"
           id="path69" />
        <path
           d="m 333.76767,188.26691 h 5.4 v -14.2 c 0,-5.16 -2.32,-7.6 -7.08,-7.6 -3.56,0 -5.8,1.88 -6.92,4.04 h -0.08 v -3.56 h -5.16 v 21.32 h 5.4 v -12.48 c 0,-3.24 1.6,-5.28 4.8,-5.28 1.28,0 2.32,0.4 2.96,1.28 0.64,0.88 0.68,2.28 0.68,3.8 z"
           style="font-weight:500;font-family:'Atlas Grotesk';-inkscape-font-specification:'Atlas Grotesk Medium';fill:#ffffff"
           id="path71" />
        <path
           d="m 358.16766,175.54691 h -9.04 c 0.36,-3.48 1.88,-5.6 4.64,-5.6 2.96,0 4.2,2.16 4.4,5.36 z m 5.24,6.72 h -5.28 c -0.36,1.28 -1.2,2.8 -4.08,2.8 -3.16,0 -4.72,-2.12 -4.96,-6.16 h 14.56 v -1.72 c 0,-5.96 -2.84,-10.76 -9.84,-10.76 -6.44,0 -10.16,4.72 -10.16,11.2 0,6.68 3.48,11.16 10.2,11.16 5.48,0 8.88,-2.44 9.56,-6.52 z"
           style="font-weight:500;font-family:'Atlas Grotesk';-inkscape-font-specification:'Atlas Grotesk Medium';fill:#ffffff"
           id="path73" />
        <path
           d="m 384.12759,172.06691 v -10.4 h 5.52 c 2.84,0 5.6,1.4 5.6,5.08 0,3.88 -2.6,5.32 -5.72,5.32 z m 11.4,16.2 h 6.12 l -6.84,-13.24 v -0.08 c 2.84,-0.96 6.16,-3.24 6.16,-8.44 0,-3.96 -1.96,-6.32 -4.72,-7.64 -1.84,-0.84 -4,-1.2 -6.04,-1.2 h -11.68 v 30.6 h 5.6 v -12.12 h 5.44 z"
           style="font-weight:500;font-family:'Atlas Grotesk';-inkscape-font-specification:'Atlas Grotesk Medium';fill:#ffffff"
           id="path75" />
        <path
           d="m 419.08755,175.54691 h -9.04 c 0.36,-3.48 1.88,-5.6 4.64,-5.6 2.96,0 4.2,2.16 4.4,5.36 z m 5.24,6.72 h -5.28 c -0.36,1.28 -1.2,2.8 -4.08,2.8 -3.16,0 -4.72,-2.12 -4.96,-6.16 h 14.56 v -1.72 c 0,-5.96 -2.84,-10.76 -9.84,-10.76 -6.44,0 -10.16,4.72 -10.16,11.2 0,6.68 3.48,11.16 10.2,11.16 5.48,0 8.88,-2.44 9.56,-6.52 z"
           style="font-weight:500;font-family:'Atlas Grotesk';-inkscape-font-specification:'Atlas Grotesk Medium';fill:#ffffff"
           id="path77" />
        <path
           d="m 436.12747,184.94691 c -1.96,0 -3.12,-1.12 -3.12,-2.88 0,-1 0.32,-1.8 1.08,-2.32 1.12,-0.8 3.12,-1.12 6.88,-1.32 v 0.6 c 0,4.16 -2.48,5.92 -4.84,5.92 z m -2.36,-11.84 c 0.08,-1.68 1.12,-3.08 3.6,-3.08 2.44,0 3.56,1.32 3.56,4.2 v 1.08 c -4.6,0.2 -7.84,0.48 -10.08,1.64 -2.16,1.12 -3.2,2.92 -3.2,5.36 0,3.92 2.68,6.24 7.04,6.24 3.08,0 5.32,-1.24 6.56,-3.44 h 0.12 c 0.56,2.44 1.92,3.24 5.08,3.24 h 1.52 v -3.88 c -1.4,0 -1.8,-0.52 -1.8,-1.88 v -7.84 c 0,-5.68 -2.44,-8.28 -8.76,-8.28 -5.4,0 -8.64,2.56 -8.8,6.64 z"
           style="font-weight:500;font-family:'Atlas Grotesk';-inkscape-font-specification:'Atlas Grotesk Medium';fill:#ffffff"
           id="path79" />
        <path
           d="m 452.24748,188.26691 h 5.4 v -31.52 h -5.4 z"
           style="font-weight:500;font-family:'Atlas Grotesk';-inkscape-font-specification:'Atlas Grotesk Medium';fill:#ffffff"
           id="path81" />
        <path
           d="m 463.72738,162.86691 h 5.48 v -5.08 h -5.48 z m 0.04,25.4 h 5.4 v -21.32 h -5.4 z"
           style="font-weight:500;font-family:'Atlas Grotesk';-inkscape-font-specification:'Atlas Grotesk Medium';fill:#ffffff"
           id="path83" />
        <path
           d="m 477.08735,160.90691 v 1.56 c 0,3.96 -0.52,4.56 -3.28,4.56 h -0.72 v 3.76 h 3.44 v 11.48 c 0,4.44 2.24,6.32 6.44,6.32 1.8,0 3.36,-0.2 3.88,-0.28 v -4.04 c 0,0 -1.08,0.16 -2,0.16 -2.16,0 -3,-0.92 -3,-3.12 v -10.52 h 4.88 v -3.84 h -4.96 v -6.04 z"
           style="font-weight:500;font-family:'Atlas Grotesk';-inkscape-font-specification:'Atlas Grotesk Medium';fill:#ffffff"
           id="path85" />
        <path
           d="m 491.20724,162.86691 h 5.48 v -5.08 h -5.48 z m 0.04,25.4 h 5.4 v -21.32 h -5.4 z"
           style="font-weight:500;font-family:'Atlas Grotesk';-inkscape-font-specification:'Atlas Grotesk Medium';fill:#ffffff"
           id="path87" />
        <path
           d="m 515.92721,175.54691 h -9.04 c 0.36,-3.48 1.88,-5.6 4.64,-5.6 2.96,0 4.2,2.16 4.4,5.36 z m 5.24,6.72 h -5.28 c -0.36,1.28 -1.2,2.8 -4.08,2.8 -3.16,0 -4.72,-2.12 -4.96,-6.16 h 14.56 v -1.72 c 0,-5.96 -2.84,-10.76 -9.84,-10.76 -6.44,0 -10.16,4.72 -10.16,11.2 0,6.68 3.48,11.16 10.2,11.16 5.48,0 8.88,-2.44 9.56,-6.52 z"
           style="font-weight:500;font-family:'Atlas Grotesk';-inkscape-font-specification:'Atlas Grotesk Medium';fill:#ffffff"
           id="path89" />
        <path
           d="m 541.84716,172.66691 c -0.32,-3.76 -2.96,-6.24 -8.28,-6.24 -5.6,0 -8.44,3.12 -8.44,6.84 0,3.8 2.2,5.68 6.12,6.2 l 3.36,0.44 c 2.28,0.28 2.84,1.08 2.84,2.52 0,1.76 -1.52,2.8 -3.88,2.8 -2.96,0 -3.88,-1.56 -4.04,-3.08 h -5 c 0.28,4.28 3.4,6.68 9,6.68 5.2,0 8.92,-2.44 8.92,-7.04 0,-3.8 -2,-5.68 -6.12,-6.24 l -3.48,-0.48 c -1.92,-0.28 -2.72,-1 -2.72,-2.4 0,-1.52 1.24,-2.64 3.36,-2.64 2.16,0 3.36,1.12 3.48,2.64 z"
           style="font-weight:500;font-family:'Atlas Grotesk';-inkscape-font-specification:'Atlas Grotesk Medium';fill:#ffffff"
           id="path91" />
      </g>
    </g>
  </g>
</svg>
